<?xml version="1.0" encoding="iso-8859-1"?>
<!-- Uploaded to: SVG Repo, www.svgrepo.com, Generator: SVG Repo Mixer Tools -->
<svg height="800px" width="800px" version="1.1" id="Layer_1" xmlns="http://www.w3.org/2000/svg" xmlns:xlink="http://www.w3.org/1999/xlink" 
	 viewBox="0 0 392.727 392.727" xml:space="preserve">
<path style="fill:#FFFFFF;" d="M280.242,187.119c27.022,0,66.198,3.491,90.44,14.287V34.036c0-6.012-4.849-10.925-10.925-10.925
	H32.711c-6.012,0-10.925,4.848-10.925,10.925v149.075c0,6.012,4.848,10.925,10.925,10.925h180.105
	C234.796,188.929,260.719,187.119,280.242,187.119z"/>
<path style="fill:#FFC10D;" d="M43.572,165.01V54.271c5.236,0,9.503-4.267,9.503-9.503h286.255c0,5.236,4.267,9.503,9.503,9.503
	v108.218c-5.236,0-9.503,4.267-9.503,9.503H50.618c-1.875,0-3.556-0.84-4.848-2.198c-0.065-0.065-0.065-0.065-0.129-0.129
	C44.347,168.501,43.572,166.82,43.572,165.01z"/>
<g>
	<path style="fill:#194F82;" d="M75.83,89.503c-6.012,0-10.925,4.848-10.925,10.925v16.097c0,6.012,4.848,10.925,10.925,10.925
		c6.012,0,10.925-4.848,10.925-10.925v-16.097C86.691,94.352,81.842,89.503,75.83,89.503z"/>
	<path style="fill:#194F82;" d="M316.703,89.503c-6.012,0-10.925,4.848-10.925,10.925v16.097c0,6.012,4.848,10.925,10.925,10.925
		c6.077,0,10.925-4.848,10.925-10.925v-16.097C327.628,94.352,322.78,89.503,316.703,89.503z"/>
	<path style="fill:#194F82;" d="M191.16,88.081h25.729c6.012,0,10.925-4.848,10.925-10.925c0-6.077-4.848-10.925-10.925-10.925
		h-5.883v-0.905c0-6.012-4.848-10.925-10.925-10.925c-6.077,0-10.925,4.848-10.925,10.925v1.164
		c-13.705,1.034-24.566,12.347-24.566,26.246c0,14.61,11.895,26.505,26.505,26.505h10.149c2.521,0,4.719,2.069,4.719,4.719
		c0,2.521-2.069,4.719-4.719,4.719H175.58c-6.012,0-10.925,4.848-10.925,10.925c0,6.012,4.848,10.925,10.925,10.925h13.576v0.905
		c0,6.012,4.848,10.925,10.925,10.925c6.077,0,10.925-4.848,10.925-10.925v-2.844c9.826-3.879,16.743-13.446,16.743-24.566
		c0-14.61-11.895-26.505-26.505-26.505h-10.149c-2.521,0-4.719-2.069-4.719-4.719C186.505,90.279,188.638,88.081,191.16,88.081z"/>
</g>
<path style="fill:#FFFFFF;" d="M189.867,311.564v40.275c3.879,5.495,33.939,17.778,90.44,17.778
	c56.566,0,86.626-12.283,90.44-17.778v-40.275c-24.178,10.796-63.354,14.287-90.44,14.287S214.044,322.424,189.867,311.564z"/>
<path style="fill:#56ACE0;" d="M370.747,286.222v-35.62c-24.178,10.796-63.354,14.287-90.44,14.287s-66.198-3.491-90.44-14.287
	v35.62c3.879,5.495,33.939,17.778,90.44,17.778C336.808,304.065,366.869,291.782,370.747,286.222z"/>
<path style="fill:#FFFFFF;" d="M280.242,208.97c-54.238,0-84.17,11.313-89.859,17.067c5.689,5.818,35.62,17.067,89.859,17.067
	s84.17-11.313,89.859-17.067C364.412,220.218,334.481,208.97,280.242,208.97z"/>
<path style="fill:#194F82;" d="M359.822,1.325H32.711C14.675,1.325,0,16,0,34.036v149.075c0,17.972,14.675,32.646,32.711,32.646
	h138.343c-1.939,3.103-2.909,6.465-2.909,10.214v126.578c0,30.707,70.529,38.853,112.291,38.853s112.291-8.21,112.291-38.853V34.036
	C392.533,16,377.859,1.325,359.822,1.325z M370.747,351.838c-3.879,5.495-33.939,17.778-90.44,17.778
	c-56.566,0-86.626-12.283-90.44-17.778v-40.275c24.178,10.796,63.354,14.287,90.44,14.287s66.198-3.491,90.44-14.287V351.838z
	 M21.786,183.046V34.036c0-6.012,4.848-10.925,10.925-10.925h327.111c6.012,0,10.925,4.848,10.925,10.925v167.37
	c-24.178-10.796-63.354-14.287-90.44-14.287c-19.523,0-45.511,1.745-67.556,6.853H32.711
	C26.699,194.036,21.786,189.123,21.786,183.046z M280.242,304.065c-56.566,0-86.626-12.283-90.44-17.778v-35.62
	c24.178,10.796,63.354,14.287,90.44,14.287c27.087,0,66.198-3.491,90.44-14.287v35.62
	C366.869,291.782,336.808,304.065,280.242,304.065z M370.101,226.036c-5.689,5.818-35.62,17.067-89.859,17.067
	s-84.17-11.313-89.859-17.067c5.689-5.818,35.62-17.067,89.859-17.067S364.412,220.218,370.101,226.036z"/>
</svg>