<?xml version="1.0" encoding="iso-8859-1"?>
<!-- Uploaded to: SVG Repo, www.svgrepo.com, Generator: SVG Repo Mixer Tools -->
<svg height="800px" width="800px" version="1.1" id="Layer_1" xmlns="http://www.w3.org/2000/svg" xmlns:xlink="http://www.w3.org/1999/xlink" 
	 viewBox="0 0 392.598 392.598" xml:space="preserve">
<path style="fill:#FFFFFF;" d="M370.78,157.996V32.711c0-6.012-4.848-10.925-10.925-10.925H32.743
	c-6.012,0-10.925,4.848-10.925,10.925v125.35c0,6.012,4.848,10.925,10.925,10.925h327.111
	C365.931,168.921,370.78,164.073,370.78,157.996z"/>
<path style="fill:#194F82;" d="M284.8,212.364H161.39c-17.778,0-32.323,14.481-32.323,32.323s14.481,32.323,32.323,32.323h54.044
	c7.046,0,12.8,5.689,12.8,12.8c0,7.046-5.689,12.8-12.8,12.8h-62.513c-8.727,0-17.131-3.168-23.596-8.857l-74.731-68.202
	c-11.895-10.602-32.453-11.96-46.158,3.038C-2.683,241.39-2.23,260.267,9.6,272.485l99.362,102.465
	c10.731,11.184,25.859,17.648,41.309,17.648h155.087c6.012,0,10.925-4.848,10.925-10.925c0-6.012-4.849-10.925-10.925-10.925
	H150.335c-9.632,0-19.006-3.943-25.665-10.925L25.244,257.228c-3.879-4.008-4.008-10.214-0.388-14.481
	c4.202-4.59,9.956-4.848,15.063-1.099l74.731,68.137c10.537,9.374,24.113,14.545,38.141,14.545h62.513
	c19.071,0,34.586-15.515,34.586-34.586c0-19.071-15.515-34.586-34.586-34.586h-54.044c-5.818,0-10.537-4.719-10.537-10.537
	c0-5.818,4.719-10.537,10.537-10.537h123.41c17.131,0,33.358,7.176,44.606,19.717c17.325,19.394,38.529,52.945,41.438,102.594
	c0.323,6.012,5.495,10.667,11.507,10.279c6.012-0.323,10.602-5.495,10.279-11.507c-3.232-56.048-27.281-93.931-46.998-115.911
	C330.311,222.255,308.137,212.364,284.8,212.364z"/>
<ellipse style="fill:#56ACE0;" cx="196.299" cy="95.224" rx="57.406" ry="68.848"/>
<path style="fill:#FFC10D;" d="M329.341,253.673c-11.184-12.541-27.41-19.717-44.606-19.717H161.39
	c-5.818,0-10.537,4.719-10.537,10.537c0,5.818,4.719,10.537,10.537,10.537h54.044c19.071,0,34.586,15.515,34.586,34.586
	c0,19.071-15.515,34.586-34.586,34.586h-62.513c-14.093,0-27.669-5.172-38.141-14.545l-74.796-68.137
	c-2.004-1.875-4.784-2.715-7.628-2.521s-5.495,1.487-7.434,3.62c-3.62,4.202-3.491,10.408,0.388,14.481l99.426,102.594
	c6.723,6.982,16.097,10.925,25.665,10.925h155.087c4.784,0,8.792,3.103,10.279,7.434l55.661-18.747
	c-0.323-0.905-0.517-1.875-0.646-2.844C367.935,306.618,346.667,273.067,329.341,253.673z"/>
<g>
	<path style="fill:#194F82;" d="M359.855,0H32.743C14.707,0,0.032,14.675,0.032,32.711v125.35c0,18.036,14.675,32.711,32.711,32.711
		h327.111c18.036,0,32.711-14.675,32.711-32.711V32.711C392.566,14.675,377.891,0,359.855,0z M370.78,157.996
		c0,6.012-4.848,10.925-10.925,10.925H32.743c-6.012,0-10.925-4.848-10.925-10.925V32.711c0-6.012,4.848-10.925,10.925-10.925
		h327.111c6.012,0,10.925,4.848,10.925,10.925v125.35l0,0V157.996z"/>
	<path style="fill:#194F82;" d="M333.22,75.119c-6.012,0-10.925,4.848-10.925,10.925v18.683c0,6.012,4.848,10.925,10.925,10.925
		c6.012,0,10.925-4.848,10.925-10.925V86.044C344.145,79.968,339.232,75.119,333.22,75.119z"/>
	<path style="fill:#194F82;" d="M59.378,75.119c-6.012,0-10.925,4.848-10.925,10.925v18.683c0,6.012,4.848,10.925,10.925,10.925
		s10.925-4.848,10.925-10.925V86.044C70.238,79.968,65.39,75.119,59.378,75.119z"/>
	<path style="fill:#194F82;" d="M189.964,67.362h32.065c6.012,0,10.925-4.848,10.925-10.925s-4.848-10.925-10.925-10.925h-9.956
		v-3.879c0-6.012-4.848-10.925-10.925-10.925s-10.925,4.848-10.925,10.925v3.879h-0.323c-16.743,0-30.384,13.576-30.384,30.384
		s13.576,30.384,30.384,30.384h12.671c4.719,0,8.469,3.879,8.469,8.469c0,4.719-3.879,8.469-8.469,8.469h-32.065
		c-6.012,0-10.925,4.848-10.925,10.925c0,6.012,4.848,10.925,10.925,10.925h19.717v3.879c0,6.012,4.848,10.925,10.925,10.925
		c6.012,0,10.925-4.848,10.925-10.925v-5.43c12.154-4.008,20.881-15.386,20.881-28.832c0-16.743-13.576-30.384-30.384-30.384
		h-12.671c-4.719,0-8.469-3.879-8.469-8.469C181.495,71.176,185.244,67.362,189.964,67.362z"/>
</g>
</svg>